<svg width="35" height="34" viewBox="0 0 35 34" fill="none" xmlns="http://www.w3.org/2000/svg">
<path fill-rule="evenodd" clip-rule="evenodd" d="M17.2698 34C26.8077 34 34.5397 26.3888 34.5397 17C34.5397 7.61116 26.8077 0 17.2698 0C7.73197 0 0 7.61116 0 17C0 26.3888 7.73197 34 17.2698 34ZM17.2698 30C24.5635 30 30.4762 24.1797 30.4762 17C30.4762 9.8203 24.5635 4 17.2698 4C9.97618 4 4.06349 9.8203 4.06349 17C4.06349 24.1797 9.97618 30 17.2698 30Z" fill="#B4B4B4"/>
<path d="M17.3997 16.5706C20.0623 16.5706 22.2207 14.4281 22.2207 11.7853C22.2207 9.14245 20.0623 7 17.3997 7C14.7371 7 12.5786 9.14245 12.5786 11.7853C12.5786 14.4281 14.7371 16.5706 17.3997 16.5706Z" fill="#B4B4B4"/>
<path d="M19.3633 19H15.1763C12.4055 19 10.1587 21.4388 10.1587 24.4483V32H24.3809V24.4483C24.3809 21.4388 22.1341 19 19.3633 19Z" fill="#B4B4B4"/>
</svg>
