<svg viewBox="0 0 135 135" fill="none" xmlns="http://www.w3.org/2000/svg" xmlns:anim="http://www.w3.org/2000/anim" anim="" anim:transform-origin="50% 50%" anim:duration="1" anim:ease="ease-in-out">
  <g id="relatee 1" clip-path="url(#clip0_1_3)">
    <path id="Vector" d="M71.1566 1.41913L87.4482 39.7272C88.7538 42.7992 91.1973 45.2427 94.2692 46.5483L132.577 62.8399C135.803 64.2118 135.803 68.7847 132.577 70.1566L94.2692 86.4482C91.1973 87.7538 88.7538 90.1973 87.4482 93.2692L71.1566 131.577C69.7847 134.803 65.2118 134.803 63.8399 131.577L47.5483 93.2692C46.2427 90.1973 43.7992 87.7538 40.7272 86.4482L2.41913 70.1566C-0.806377 68.7847 -0.806377 64.2118 2.41913 62.8399L40.7272 46.5483C43.7992 45.2427 46.2427 42.7992 47.5483 39.7272L63.8399 1.41913C65.2118 -1.80638 69.7847 -1.80638 71.1566 1.41913Z" fill="#6F67CD" anim:scale="0.95[0:0.3:1:ease-in-out][0.3:0.9:0.95:ease-in-out]" anim:rotation="0[0:0.3:30:ease-out][0.4:0.9:-10:ease-in-out][0.9:1:0:ease-out]"></path>
  </g>
  <defs>
    <clipPath id="clip0_1_3">
      <rect width="135" height="135" fill="white"></rect>
    </clipPath>
  </defs>
</svg>