<svg viewBox="0 0 135 135" fill="none" xmlns="http://www.w3.org/2000/svg" xmlns:anim="http://www.w3.org/2000/anim" anim="" anim:transform-origin="50% 50%" anim:duration="2" anim:ease="ease-in-out">
  <g id="relatee 1" clip-path="url(#clip0_1_3)">
    <path id="Vector" d="M55.3455 24.8816L68.017 54.6776C69.0325 57.0669 70.9331 58.9675 73.3224 59.983L103.118 72.6545C105.627 73.7216 105.627 77.2784 103.118 78.3455L73.3224 91.017C70.9331 92.0325 69.0325 93.9331 68.017 96.3224L55.3455 126.118C54.2784 128.627 50.7216 128.627 49.6545 126.118L36.983 96.3224C35.9675 93.9331 34.0669 92.0325 31.6776 91.017L1.88159 78.3455C-0.627198 77.2784 -0.627198 73.7216 1.88159 72.6545L31.6776 59.983C34.0669 58.9675 35.9675 57.0669 36.983 54.6776L49.6545 24.8816C50.7216 22.3728 54.2784 22.3728 55.3455 24.8816Z" fill="#6F67CD" anim:scale="0.95[0:0.3:1:ease-in-out][0.3:0.9:0.95:ease-in-out]" anim:rotation="0[0:0.3:30:ease-out][0.4:0.9:-10:ease-in-out][0.9:1.1:0:ease-out]"></path>
    <path id="Vector_2" d="M113.719 7.8064L119.15 20.5761C119.585 21.6001 120.4 22.4146 121.424 22.8498L134.194 28.2805C135.269 28.7378 135.269 30.2622 134.194 30.7195L121.424 36.1502C120.4 36.5854 119.585 37.3999 119.15 38.4239L113.719 51.1936C113.262 52.2688 111.738 52.2688 111.281 51.1936L105.85 38.4239C105.415 37.3999 104.6 36.5854 103.576 36.1502L90.8064 30.7195C89.7312 30.2622 89.7312 28.7378 90.8064 28.2805L103.576 22.8498C104.6 22.4146 105.415 21.6001 105.85 20.5761L111.281 7.8064C111.738 6.7312 113.262 6.7312 113.719 7.8064Z" fill="#6F67CD" anim:scale="0.95[0:0.3:1:ease-in-out][0.3:0.9:0.95:ease-in-out]" anim:rotation="0[0:0.3:15:ease-out][0.4:0.8:-5:ease-in-out][0.8:1:0:ease-in]"></path>
  </g>
  <defs>
    <clipPath id="clip0_1_3">
      <rect width="135" height="135" fill="white"></rect>
    </clipPath>
  </defs>
</svg>