<?xml version="1.0" encoding="UTF-8"?><svg id="Layer_1" xmlns="http://www.w3.org/2000/svg" viewBox="0 0 386.73 386.73"><path class="cls-1" d="M203.84,6.93l46.67,109.74c3.74,8.8,10.74,15.8,19.54,19.54l109.74,46.67c9.24,3.93,9.24,17.03,0,20.96l-109.74,46.67c-8.8,3.74-15.8,10.74-19.54,19.54l-46.67,109.74c-3.93,9.24-17.03,9.24-20.96,0l-46.67-109.74c-3.74-8.8-10.74-15.8-19.54-19.54L6.93,203.84c-9.24-3.93-9.24-17.03,0-20.96l109.74-46.67c8.8-3.74,15.8-10.74,19.54-19.54L182.88,6.93c3.93-9.24,17.03-9.24,20.96,0Z"/></svg>