<?xml version="1.0" encoding="UTF-8" standalone="no"?><!DOCTYPE svg PUBLIC "-//W3C//DTD SVG 1.1//EN" "http://www.w3.org/Graphics/SVG/1.1/DTD/svg11.dtd"><svg width="100%" height="100%" viewBox="0 0 1780 1780" version="1.1" xmlns="http://www.w3.org/2000/svg" xmlns:xlink="http://www.w3.org/1999/xlink" xml:space="preserve" xmlns:serif="http://www.serif.com/" style="fill-rule:evenodd;clip-rule:evenodd;stroke-miterlimit:1.5;"><g><path d="M1600.94,178.402l-0,-122.065l-1544.6,-0l-0,1544.6l122.065,-0l0,-1422.54l1422.54,0Z" style="fill:none;stroke:#000;stroke-width:62.5px;"/><rect x="178.402" y="178.402" width="1544.6" height="1544.6" style="fill:none;stroke:url(#_Linear1);stroke-width:62.5px;"/><g><path d="M540.913,739.932c-6.958,-3.784 -15.076,-5.676 -24.353,-5.676c-12.573,0 -22.4,4.608 -29.48,13.825c-7.08,9.216 -10.62,21.759 -10.62,37.628l-0,89.538l-57.861,0l-0,-187.5l57.861,0l-0,34.79l0.732,0c9.156,-25.39 25.635,-38.086 49.439,-38.086c6.103,0 10.864,0.733 14.282,2.198l0,53.283Z" style="fill:url(#_Linear2);fill-rule:nonzero;"/><path d="M748.921,875.247l-57.678,0l-0,-106.567c-0,-27.466 -10.01,-41.199 -30.03,-41.199c-10.254,0 -18.554,3.845 -24.902,11.536c-6.348,7.69 -9.521,17.456 -9.521,29.297l-0,106.933l-57.862,0l0,-277.588l57.862,0l-0,117.92l0.732,0c14.16,-21.606 33.386,-32.409 57.678,-32.409c42.481,-0 63.721,25.634 63.721,76.904l-0,115.173Z" style="fill:url(#_Linear3);fill-rule:nonzero;"/><path d="M823.994,658.084c-9.766,0 -17.761,-2.899 -23.987,-8.697c-6.225,-5.799 -9.338,-12.909 -9.338,-21.332c-0,-8.667 3.113,-15.747 9.338,-21.24c6.226,-5.494 14.221,-8.24 23.987,-8.24c9.888,-0 17.914,2.746 24.078,8.24c6.165,5.493 9.247,12.573 9.247,21.24c0,8.789 -3.082,15.991 -9.247,21.606c-6.164,5.616 -14.19,8.423 -24.078,8.423Zm28.565,217.163l-57.862,0l0,-187.5l57.862,0l-0,187.5Z" style="fill:url(#_Linear4);fill-rule:nonzero;"/><path d="M1082.36,875.247l-57.678,0l-0,-104.187c-0,-29.052 -10.376,-43.579 -31.128,-43.579c-10.01,0 -18.25,3.845 -24.719,11.536c-6.47,7.69 -9.705,17.456 -9.705,29.297l-0,106.933l-57.861,0l-0,-187.5l57.861,0l-0,29.663l0.732,0c13.794,-22.827 33.875,-34.24 60.242,-34.24c41.504,-0 62.256,25.756 62.256,77.27l-0,114.807Z" style="fill:url(#_Linear5);fill-rule:nonzero;"/><path d="M1296.59,797.977l-122.314,-0c1.953,27.221 19.104,40.832 51.453,40.832c20.629,0 38.757,-4.883 54.382,-14.648l-0,41.748c-17.334,9.277 -39.856,13.916 -67.566,13.916c-30.274,-0 -53.772,-8.392 -70.496,-25.177c-16.723,-16.785 -25.085,-40.192 -25.085,-70.221c-0,-31.128 9.033,-55.786 27.099,-73.975c18.067,-18.188 40.284,-27.282 66.651,-27.282c27.344,-0 48.492,8.117 63.446,24.353c14.954,16.235 22.43,38.269 22.43,66.101l0,24.353Zm-53.65,-35.523c0,-26.855 -10.864,-40.283 -32.592,-40.283c-9.278,0 -17.304,3.845 -24.079,11.536c-6.775,7.69 -10.894,17.273 -12.359,28.747l69.03,0Z" style="fill:url(#_Linear6);fill-rule:nonzero;"/><path d="M627.339,1193.88l-0.733,0l0,21.79l-57.861,-0l-0,-277.588l57.861,-0l0,118.286l0.733,0c14.282,-21.851 34.606,-32.776 60.974,-32.776c24.17,0 42.785,8.301 55.847,24.902c13.061,16.602 19.592,39.307 19.592,68.116c0,31.25 -7.629,56.335 -22.888,75.256c-15.259,18.921 -35.645,28.381 -61.157,28.381c-23.072,0 -40.528,-8.789 -52.368,-26.367Zm-1.648,-79.101l-0,19.226c-0,12.085 3.479,22.094 10.437,30.029c6.958,7.935 15.869,11.902 26.733,11.902c13.184,-0 23.407,-5.097 30.67,-15.289c7.263,-10.193 10.895,-24.628 10.895,-43.305c-0,-15.503 -3.326,-27.618 -9.979,-36.346c-6.653,-8.728 -16.144,-13.092 -28.473,-13.092c-11.597,-0 -21.21,4.333 -28.839,13c-7.63,8.667 -11.444,19.959 -11.444,33.875Z" style="fill:url(#_Linear7);fill-rule:nonzero;"/><path d="M979.817,1028.17l-76.172,202.514c-18.311,48.706 -45.899,73.059 -82.764,73.06c-14.038,-0.001 -25.574,-1.587 -34.607,-4.761l0,-46.143c7.69,4.517 16.052,6.775 25.086,6.775c14.892,0 25.268,-7.019 31.127,-21.057l9.888,-23.254l-76.172,-187.134l64.087,-0l34.973,114.074c2.198,7.081 3.907,15.442 5.127,25.086l0.733,-0c1.098,-7.08 3.112,-15.32 6.042,-24.719l35.34,-114.441l57.312,-0Z" style="fill:url(#_Linear8);fill-rule:nonzero;"/><path d="M1117.15,1213.48c-8.545,4.516 -21.424,6.774 -38.636,6.774c-40.771,0 -61.157,-21.179 -61.157,-63.537l0,-85.877l-30.395,0l-0,-42.663l30.395,-0l0,-40.467l57.678,-16.479l0,56.946l42.115,-0l-0,42.663l-42.115,0l0,75.806c0,19.531 7.752,29.297 23.255,29.297c6.103,-0 12.39,-1.77 18.86,-5.31l-0,42.847Z" style="fill:url(#_Linear9);fill-rule:nonzero;"/><path d="M1316.73,1138.4l-122.315,0c1.953,27.222 19.104,40.833 51.453,40.833c20.63,-0 38.757,-4.883 54.382,-14.649l0,41.748c-17.334,9.278 -39.856,13.916 -67.566,13.916c-30.273,0 -53.772,-8.392 -70.495,-25.177c-16.724,-16.784 -25.086,-40.191 -25.086,-70.221c0,-31.127 9.033,-55.786 27.1,-73.974c18.066,-18.189 40.283,-27.283 66.65,-27.283c27.344,0 48.493,8.118 63.446,24.353c14.954,16.236 22.431,38.269 22.431,66.101l-0,24.353Zm-53.65,-35.522c-0,-26.856 -10.865,-40.283 -32.593,-40.283c-9.277,-0 -17.304,3.845 -24.078,11.535c-6.775,7.691 -10.895,17.273 -12.36,28.748l69.031,-0Z" style="fill:url(#_Linear10);fill-rule:nonzero;"/><path d="M1338.89,1210.73l0,-46.875c9.522,5.737 19.013,10.01 28.473,12.817c9.461,2.808 18.402,4.212 26.825,4.212c10.254,-0 18.341,-1.404 24.262,-4.212c5.92,-2.807 8.88,-7.08 8.88,-12.817c0,-3.662 -1.342,-6.714 -4.028,-9.155c-2.686,-2.442 -6.134,-4.578 -10.345,-6.409c-4.212,-1.831 -8.82,-3.479 -13.825,-4.944c-5.005,-1.465 -9.827,-3.113 -14.465,-4.944c-7.447,-2.807 -14.008,-5.829 -19.684,-9.063c-5.676,-3.235 -10.437,-6.989 -14.282,-11.261c-3.846,-4.273 -6.775,-9.217 -8.789,-14.832c-2.015,-5.615 -3.022,-12.268 -3.022,-19.958c0,-10.499 2.289,-19.532 6.867,-27.1c4.577,-7.568 10.681,-13.764 18.31,-18.585c7.63,-4.822 16.358,-8.362 26.184,-10.62c9.827,-2.259 20.051,-3.388 30.671,-3.388c8.3,0 16.723,0.641 25.268,1.923c8.545,1.281 16.968,3.143 25.269,5.584l-0,44.678c-7.324,-4.272 -15.168,-7.477 -23.529,-9.613c-8.362,-2.136 -16.571,-3.204 -24.628,-3.204c-3.784,-0 -7.355,0.336 -10.712,1.007c-3.357,0.671 -6.317,1.648 -8.88,2.93c-2.564,1.281 -4.578,2.929 -6.043,4.943c-1.465,2.015 -2.197,4.303 -2.197,6.867c-0,3.418 1.099,6.348 3.296,8.789c2.197,2.441 5.066,4.547 8.606,6.317c3.54,1.77 7.477,3.357 11.81,4.761c4.334,1.404 8.637,2.838 12.909,4.303c7.69,2.685 14.648,5.615 20.874,8.789c6.226,3.174 11.566,6.897 16.022,11.169c4.455,4.273 7.873,9.278 10.254,15.015c2.38,5.737 3.57,12.573 3.57,20.508c0,11.108 -2.411,20.599 -7.232,28.473c-4.822,7.873 -11.231,14.282 -19.226,19.226c-7.996,4.944 -17.212,8.545 -27.649,10.803c-10.437,2.258 -21.271,3.387 -32.502,3.387c-20.629,0 -39.734,-3.173 -57.312,-9.521Z" style="fill:url(#_Linear11);fill-rule:nonzero;"/></g></g><defs><linearGradient id="_Linear1" x1="0" y1="0" x2="1" y2="0" gradientUnits="userSpaceOnUse" gradientTransform="matrix(1544.6,0,0,1544.6,178.402,950.703)"><stop offset="0" style="stop-color:#52c6ff;stop-opacity:1"/><stop offset="1" style="stop-color:#005ebb;stop-opacity:1"/></linearGradient><linearGradient id="_Linear2" x1="0" y1="0" x2="1" y2="0" gradientUnits="userSpaceOnUse" gradientTransform="matrix(877.991,0,0,282.166,418.599,738.742)"><stop offset="0" style="stop-color:#52c6ff;stop-opacity:1"/><stop offset="0.31" style="stop-color:#4bbdf9;stop-opacity:1"/><stop offset="1" style="stop-color:#005ebb;stop-opacity:1"/></linearGradient><linearGradient id="_Linear3" x1="0" y1="0" x2="1" y2="0" gradientUnits="userSpaceOnUse" gradientTransform="matrix(877.991,0,0,282.166,418.599,738.742)"><stop offset="0" style="stop-color:#52c6ff;stop-opacity:1"/><stop offset="0.31" style="stop-color:#4bbdf9;stop-opacity:1"/><stop offset="1" style="stop-color:#005ebb;stop-opacity:1"/></linearGradient><linearGradient id="_Linear4" x1="0" y1="0" x2="1" y2="0" gradientUnits="userSpaceOnUse" gradientTransform="matrix(877.991,0,0,282.166,418.599,738.742)"><stop offset="0" style="stop-color:#52c6ff;stop-opacity:1"/><stop offset="0.31" style="stop-color:#4bbdf9;stop-opacity:1"/><stop offset="1" style="stop-color:#005ebb;stop-opacity:1"/></linearGradient><linearGradient id="_Linear5" x1="0" y1="0" x2="1" y2="0" gradientUnits="userSpaceOnUse" gradientTransform="matrix(877.991,0,0,282.166,418.599,738.742)"><stop offset="0" style="stop-color:#52c6ff;stop-opacity:1"/><stop offset="0.31" style="stop-color:#4bbdf9;stop-opacity:1"/><stop offset="1" style="stop-color:#005ebb;stop-opacity:1"/></linearGradient><linearGradient id="_Linear6" x1="0" y1="0" x2="1" y2="0" gradientUnits="userSpaceOnUse" gradientTransform="matrix(877.991,0,0,282.166,418.599,738.742)"><stop offset="0" style="stop-color:#52c6ff;stop-opacity:1"/><stop offset="0.31" style="stop-color:#4bbdf9;stop-opacity:1"/><stop offset="1" style="stop-color:#005ebb;stop-opacity:1"/></linearGradient><linearGradient id="_Linear7" x1="0" y1="0" x2="1" y2="0" gradientUnits="userSpaceOnUse" gradientTransform="matrix(914.063,0,0,365.662,568.745,1120.92)"><stop offset="0" style="stop-color:#52c6ff;stop-opacity:1"/><stop offset="0.31" style="stop-color:#46b7f5;stop-opacity:1"/><stop offset="1" style="stop-color:#005ebb;stop-opacity:1"/></linearGradient><linearGradient id="_Linear8" x1="0" y1="0" x2="1" y2="0" gradientUnits="userSpaceOnUse" gradientTransform="matrix(914.063,0,0,365.662,568.745,1120.92)"><stop offset="0" style="stop-color:#52c6ff;stop-opacity:1"/><stop offset="0.31" style="stop-color:#46b7f5;stop-opacity:1"/><stop offset="1" style="stop-color:#005ebb;stop-opacity:1"/></linearGradient><linearGradient id="_Linear9" x1="0" y1="0" x2="1" y2="0" gradientUnits="userSpaceOnUse" gradientTransform="matrix(914.063,0,0,365.662,568.745,1120.92)"><stop offset="0" style="stop-color:#52c6ff;stop-opacity:1"/><stop offset="0.31" style="stop-color:#46b7f5;stop-opacity:1"/><stop offset="1" style="stop-color:#005ebb;stop-opacity:1"/></linearGradient><linearGradient id="_Linear10" x1="0" y1="0" x2="1" y2="0" gradientUnits="userSpaceOnUse" gradientTransform="matrix(914.063,0,0,365.662,568.745,1120.92)"><stop offset="0" style="stop-color:#52c6ff;stop-opacity:1"/><stop offset="0.31" style="stop-color:#46b7f5;stop-opacity:1"/><stop offset="1" style="stop-color:#005ebb;stop-opacity:1"/></linearGradient><linearGradient id="_Linear11" x1="0" y1="0" x2="1" y2="0" gradientUnits="userSpaceOnUse" gradientTransform="matrix(914.063,0,0,365.662,568.745,1120.92)"><stop offset="0" style="stop-color:#52c6ff;stop-opacity:1"/><stop offset="0.31" style="stop-color:#46b7f5;stop-opacity:1"/><stop offset="1" style="stop-color:#005ebb;stop-opacity:1"/></linearGradient></defs></svg>