<svg width="44" height="43" viewBox="0 0 44 43" fill="none" xmlns="http://www.w3.org/2000/svg">
<path d="M6.18997 16.5365C6.9045 14.3705 8.08156 12.3823 9.63466 10.6973C9.89728 10.4124 10.3093 10.3108 10.6782 10.4401L14.3898 11.7409C15.3961 12.0934 16.5033 11.5795 16.8629 10.5932C16.8983 10.4962 16.9255 10.3966 16.9443 10.2955L17.6514 6.49123C17.7217 6.11299 18.0181 5.81379 18.4018 5.73373C19.5244 5.49954 20.6753 5.38043 21.8414 5.38043C23.0068 5.38043 24.1571 5.49941 25.279 5.7333C25.6626 5.81328 25.9589 6.11229 26.0294 6.4904L26.7385 10.2953C26.9302 11.3257 27.9377 12.0086 28.9891 11.8207C29.0926 11.8022 29.1941 11.7756 29.293 11.7409L33.0046 10.4401C33.3734 10.3108 33.7854 10.4124 34.0481 10.6973C35.6013 12.3823 36.7782 14.3705 37.493 16.5365C37.6134 16.9019 37.4971 17.3025 37.1984 17.551L34.19 20.0545C33.3756 20.7324 33.276 21.9291 33.9675 22.7275C34.0355 22.806 34.11 22.879 34.19 22.9456L37.1984 25.4491C37.4971 25.6976 37.6134 26.0982 37.493 26.4636C36.7782 28.6297 35.6013 30.6179 34.0481 32.3027C33.7854 32.5876 33.3734 32.6892 33.0046 32.5599L29.293 31.2591C28.2869 30.9068 27.1795 31.4207 26.8199 32.4067C26.7846 32.5037 26.7573 32.6034 26.7385 32.705L26.0294 36.5097C25.9589 36.8878 25.6626 37.1867 25.279 37.2668C24.1571 37.5006 23.0068 37.6197 21.8414 37.6197C20.6753 37.6197 19.5244 37.5006 18.4018 37.2662C18.0181 37.1862 17.7217 36.887 17.6514 36.5089L16.9443 32.7048C16.7526 31.6744 15.745 30.9915 14.6938 31.1793C14.5904 31.1979 14.4887 31.2245 14.39 31.2591L10.6782 32.5599C10.3093 32.6892 9.89728 32.5876 9.63466 32.3027C8.08156 30.6179 6.9045 28.6297 6.18997 26.4636C6.06943 26.0982 6.18565 25.6976 6.48436 25.4491L9.49272 22.9456C10.3073 22.2677 10.4069 21.0709 9.71526 20.2725C9.64725 20.194 9.57282 20.1211 9.49275 20.0545L6.48436 17.551C6.18565 17.3025 6.06943 16.9019 6.18997 16.5365ZM17.0633 21.4999C17.0633 24.0973 19.2024 26.203 21.8411 26.203C24.4798 26.203 26.6189 24.0973 26.6189 21.4999C26.6189 18.9024 24.4798 16.7967 21.8411 16.7967C19.2024 16.7967 17.0633 18.9024 17.0633 21.4999Z" fill="#B4B4B4"/>
</svg>
